<svg width="695" height="693" viewBox="0 0 695 693" fill="none" xmlns="http://www.w3.org/2000/svg">
<path fill-rule="evenodd" clip-rule="evenodd" d="M29 27.0219C29 12.644 41.5556 1.4925 55.833 3.18965L673.833 76.6518C685.907 78.087 695 88.325 695 100.484V592.235C695 604.394 685.907 614.632 673.833 616.067L55.8329 689.53C41.5556 691.227 29 680.075 29 665.697V27.0219Z" fill="#F2F7FF"/>
<mask id="mask0_416_18689" style="mask-type:alpha" maskUnits="userSpaceOnUse" x="0" y="24" width="695" height="667">
<path fill-rule="evenodd" clip-rule="evenodd" d="M0 48.7938C0 34.4969 12.4215 23.3706 26.6322 24.9386L673.632 96.328C685.795 97.67 695 107.947 695 120.183V594.817C695 607.053 685.795 617.33 673.632 618.672L26.6322 690.061C12.4214 691.629 0 680.503 0 666.206V48.7938Z" fill="white"/>
</mask>
<g mask="url(#mask0_416_18689)">
<g filter="url(#filter0_d_416_18689)">
<path d="M329.09 577.831C386.074 577.831 432.268 548.969 432.268 513.366C432.268 477.762 386.074 448.9 329.09 448.9C272.106 448.9 225.912 477.762 225.912 513.366C225.912 548.969 272.106 577.831 329.09 577.831Z" fill="#1890FF"/>
<path d="M320.805 405.338L305.813 453.005C304.157 458.272 303.764 463.856 304.666 469.303C305.569 474.751 307.742 479.909 311.009 484.361C314.275 488.813 318.544 492.433 323.469 494.928C328.395 497.424 333.839 498.725 339.361 498.725C348.237 498.725 356.786 495.367 363.29 489.327C369.795 483.287 373.775 475.011 374.432 466.159L378.795 407.354L320.805 405.338Z" fill="#FFDA8F" stroke="#45413C" stroke-linecap="round" stroke-linejoin="round"/>
<path d="M305.812 453.005C305.812 453.005 336.437 465.074 355.409 454.606C374.381 444.139 380.269 425.168 380.269 425.168L373.072 407.503L316.156 404.887L305.812 453.005Z" fill="#FFBE3D"/>
<path d="M320.805 405.338L305.813 453.005C304.157 458.272 303.764 463.856 304.666 469.303C305.569 474.751 307.742 479.909 311.009 484.361C314.275 488.813 318.544 492.433 323.469 494.928C328.395 497.424 333.839 498.725 339.361 498.725C348.237 498.725 356.786 495.367 363.29 489.327C369.795 483.287 373.775 475.011 374.432 466.159L378.795 407.354L320.805 405.338Z" stroke="#070808" stroke-width="6" stroke-miterlimit="10"/>
<path d="M345.658 339.063C345.658 325.08 340.104 311.671 330.217 301.784C320.331 291.897 306.922 286.344 292.94 286.344C278.957 286.344 265.549 291.897 255.662 301.784C245.775 311.671 240.221 325.08 240.221 339.063C245.634 345.658 241.797 353.691 244.62 360.15C241.12 368.172 239.672 376.94 240.407 385.663C241.143 394.385 244.039 402.787 248.833 410.11C253.628 417.434 260.171 423.448 267.871 427.61C275.571 431.772 284.186 433.952 292.94 433.952C301.693 433.952 310.308 431.772 318.008 427.61C325.708 423.448 332.252 417.434 337.046 410.11C341.84 402.787 344.737 394.385 345.472 385.663C346.208 376.94 344.759 368.172 341.259 360.15C344.167 353.5 345.665 346.32 345.658 339.063Z" fill="#183B56"/>
<path d="M306.129 406.797C277.013 406.797 256.085 396.385 256.648 367.271C257.318 332.471 286.43 339.968 286.43 332.468C286.43 320.262 281.879 293.185 283.252 272.245C257.3 272.872 231.991 281.222 226.005 302.178C222.383 314.853 233.864 331.909 242.468 341.101C244.741 349.626 232.176 350.011 244.621 360.145C239.479 371.916 238.813 385.16 242.748 397.388C246.682 409.616 254.946 419.986 265.987 426.552C277.028 433.116 290.086 435.424 302.709 433.039C315.331 430.656 326.648 423.745 334.535 413.605C327.056 417.679 315.244 406.797 306.129 406.797Z" fill="#183B56"/>
<path d="M345.658 339.063C345.658 309.947 320.527 296.652 297.352 279.026C269.617 257.928 193.844 288.673 240.221 339.063C252.954 352.897 225.395 344.094 244.62 360.151C241.119 368.173 239.671 376.941 240.407 385.663C241.143 394.386 244.038 402.788 248.833 410.111C253.627 417.434 260.17 423.448 267.871 427.611C275.571 431.773 284.186 433.953 292.94 433.953C301.693 433.953 310.308 431.773 318.008 427.611C325.709 423.448 332.251 417.434 337.046 410.111C341.841 402.788 344.737 394.386 345.472 385.663C346.207 376.941 344.759 368.173 341.259 360.151C344.167 353.501 345.664 346.321 345.658 339.063Z" stroke="#070808" stroke-width="6" stroke-miterlimit="10"/>
<path d="M285.215 298.585H416.376V371.702C416.376 389.095 409.467 405.776 397.168 418.074C384.87 430.373 368.189 437.282 350.796 437.282C333.403 437.282 316.722 430.373 304.423 418.074C292.125 405.776 285.215 389.095 285.215 371.702V298.585Z" fill="#FFDA8F" stroke="#45413C" stroke-linecap="round" stroke-linejoin="round"/>
<path d="M296.537 330.747C296.537 330.747 313.606 338.281 345.107 334.658C374.479 331.279 398.673 318.633 398.673 318.633C398.673 318.633 415.525 329.023 415.525 335.059C422.854 332.472 426.303 296.69 426.303 296.69L400.005 291.948C400.005 291.948 297.397 313.503 296.537 330.747Z" fill="#FFBE3D"/>
<path d="M359.652 423.917C305.399 429.947 287.244 375.543 287.244 375.543C286.615 376.414 286.052 377.293 285.531 378.177C287.139 394.37 294.709 409.386 306.769 420.31C318.831 431.233 334.521 437.282 350.794 437.283C362.948 437.286 374.864 433.91 385.211 427.534C395.558 421.158 403.929 412.031 409.391 401.174L410.992 392.013C410.992 392.013 406.905 418.667 359.652 423.917Z" fill="#FFBE3D"/>
<path d="M285.215 298.585H416.376V371.702C416.376 389.095 409.467 405.776 397.168 418.074C384.87 430.373 368.189 437.282 350.796 437.282C333.403 437.282 316.722 430.373 304.423 418.074C292.125 405.776 285.215 389.095 285.215 371.702V298.585Z" stroke="#070808" stroke-width="6" stroke-miterlimit="10"/>
<path d="M393.236 264.516C393.236 264.516 382.651 284.599 394.762 303.155C398.799 309.34 414.288 310.098 415.927 325.497C417.904 344.066 451.308 289.102 418.279 266.995C412.021 262.807 395.318 244.216 393.236 264.516Z" fill="#EFDD5C"/>
<path d="M393.236 264.516C393.236 264.516 382.651 284.599 394.762 303.155C398.799 309.34 414.288 310.098 415.927 325.497C417.904 344.066 451.308 289.102 418.279 266.995C412.021 262.807 395.318 244.216 393.236 264.516Z" fill="#183B56"/>
<path d="M393.236 264.516C393.236 264.516 382.651 284.599 394.762 303.155C398.799 309.339 414.288 310.098 415.927 325.497C417.904 344.066 449.964 290.893 418.279 266.995C412.268 262.461 395.318 244.215 393.236 264.516Z" stroke="#183B56" stroke-width="6" stroke-linecap="round" stroke-linejoin="round"/>
<path d="M286.43 332.472C326.797 331.779 368.573 324.717 403.284 299.039C413.447 291.522 419.099 269.97 408.328 257.229C365.647 206.74 299.788 245.197 286.448 266.732C272.659 288.992 267.461 311.697 286.43 332.472Z" fill="#183B56"/>
<path d="M411.526 262.19C410.291 270.342 406.275 277.884 401.066 281.738C370.302 304.495 333.989 312.629 298.026 314.67C292.947 314.993 287.898 313.676 283.626 310.912C279.353 308.148 276.081 304.083 274.294 299.319C274.274 299.265 274.255 299.21 274.235 299.156C267.469 306.674 268.022 322.687 286.428 332.472C326.795 331.779 368.571 324.717 403.282 299.039C412.219 292.429 417.663 274.97 411.526 262.19Z" fill="#183B56"/>
<path d="M285.204 331.707C288.266 334.703 372.142 328.271 403.285 299.039C412.502 290.388 419.1 269.97 408.329 257.229C365.647 206.74 299.788 245.197 286.448 266.732C282.075 273.792 277.827 281.615 275.193 289.689" stroke="#070808" stroke-width="6" stroke-linecap="round" stroke-linejoin="round"/>
<path d="M407.285 340.302C407.285 340.302 401.721 332.938 391.928 333.31" stroke="#070808" stroke-width="6" stroke-miterlimit="10" stroke-linecap="round"/>
<path d="M398.438 355.905C400.369 355.777 401.751 352.91 401.524 349.502C401.297 346.094 399.547 343.436 397.617 343.565C395.685 343.693 394.304 346.56 394.53 349.968C394.757 353.376 396.506 356.034 398.438 355.905Z" fill="#070808"/>
<path d="M373.37 348.563L386.352 369.202L372.361 372.7" stroke="#070808" stroke-width="6" stroke-linecap="round" stroke-linejoin="round"/>
<path d="M329.547 347.934C329.547 347.934 334.851 340.379 344.65 340.408" stroke="#070808" stroke-width="6" stroke-miterlimit="10" stroke-linecap="round"/>
<path d="M344.343 362.193C346.239 361.81 347.227 358.784 346.55 355.437C345.872 352.09 343.785 349.687 341.887 350.071C339.991 350.456 339.003 353.48 339.681 356.828C340.359 360.176 342.445 362.578 344.343 362.193Z" fill="#070808"/>
<path d="M355.836 397.803C355.836 397.803 369.133 379.864 388.044 389.972" stroke="#070808" stroke-width="6" stroke-linecap="round" stroke-linejoin="round"/>
<path d="M393.234 264.515C393.234 264.515 388.727 288.378 352.775 290.303" stroke="#070808" stroke-width="6" stroke-linecap="round" stroke-linejoin="round"/>
<path d="M294.909 368.024C277.708 374.764 264.368 358.017 264.691 350.59C266.783 302.474 296.426 334.372 296.426 334.372" fill="#FFDA8F"/>
<path d="M294.909 368.024C277.708 374.764 264.368 358.017 264.691 350.59C266.783 302.474 296.426 334.372 296.426 334.372" stroke="#45413C" stroke-linecap="round" stroke-linejoin="round"/>
<path d="M294.91 368.023C273.512 378.571 259.346 349.198 263.85 337.668C275.316 308.32 296.427 334.371 296.427 334.371" stroke="#070808" stroke-width="6" stroke-miterlimit="10" stroke-linecap="round"/>
<path d="M636.18 141.916H511.281C495.037 141.916 481.867 155.085 481.867 171.33V254.32C481.867 270.564 495.037 283.734 511.281 283.734H636.18C652.425 283.734 665.594 270.564 665.594 254.32V171.33C665.594 155.085 652.425 141.916 636.18 141.916Z" fill="#183B56"/>
<g filter="url(#filter1_d_416_18689)">
<path d="M645.607 130.878H520.906C504.687 130.878 491.539 144.294 491.539 160.843V245.388C491.539 261.937 504.687 275.353 520.906 275.353H645.607C661.826 275.353 674.974 261.937 674.974 245.388V160.843C674.974 144.294 661.826 130.878 645.607 130.878Z" fill="#F0BF4C"/>
<path d="M645.56 130.878H520.662C504.417 130.878 491.248 144.047 491.248 160.292V243.282C491.248 259.527 504.417 272.695 520.662 272.695H645.56C661.806 272.695 674.974 259.527 674.974 243.282V160.292C674.974 144.047 661.806 130.878 645.56 130.878Z" fill="#F0BF4C" stroke="#183B56" stroke-width="6" stroke-miterlimit="10"/>
</g>
<path d="M498.084 321.117C506.76 321.117 513.793 314.084 513.793 305.408C513.793 296.732 506.76 289.699 498.084 289.699C489.408 289.699 482.375 296.732 482.375 305.408C482.375 314.084 489.408 321.117 498.084 321.117Z" stroke="#070808" stroke-width="6" stroke-miterlimit="10"/>
<path d="M470.485 344.125C475.847 344.125 480.193 339.779 480.193 334.417C480.193 329.056 475.847 324.709 470.485 324.709C465.124 324.709 460.777 329.056 460.777 334.417C460.777 339.779 465.124 344.125 470.485 344.125Z" stroke="#070808" stroke-width="6" stroke-miterlimit="10"/>
<path d="M633.449 214.855H528.281C524.097 214.855 520.705 218.247 520.705 222.431V240.88C520.705 245.065 524.097 248.457 528.281 248.457H633.449C637.633 248.457 641.025 245.065 641.025 240.88V222.431C641.025 218.247 637.633 214.855 633.449 214.855Z" fill="white"/>
<path d="M536.101 241.027C534.092 241.026 532.165 240.229 530.744 238.808C529.323 237.387 528.525 235.459 528.525 233.45V215.002C528.525 214.952 528.532 214.904 528.533 214.855H528.281C526.272 214.855 524.345 215.653 522.924 217.074C521.503 218.495 520.705 220.421 520.705 222.431V240.879C520.705 242.888 521.503 244.816 522.924 246.236C524.345 247.657 526.272 248.455 528.281 248.455H633.448C635.431 248.455 637.335 247.678 638.751 246.288C640.167 244.899 640.98 243.009 641.018 241.026L536.101 241.027Z" fill="#E4E4E4"/>
<path d="M633.449 214.855H528.281C524.097 214.855 520.705 218.247 520.705 222.431V240.88C520.705 245.065 524.097 248.457 528.281 248.457H633.449C637.633 248.457 641.025 245.065 641.025 240.88V222.431C641.025 218.247 637.633 214.855 633.449 214.855Z" stroke="#070808" stroke-width="6" stroke-miterlimit="10"/>
<path d="M545.322 236.221C548.412 236.221 550.917 233.716 550.917 230.626C550.917 227.536 548.412 225.031 545.322 225.031C542.231 225.031 539.727 227.536 539.727 230.626C539.727 233.716 542.231 236.221 545.322 236.221Z" fill="#070808"/>
<path d="M563.386 236.221C566.476 236.221 568.982 233.716 568.982 230.626C568.982 227.536 566.476 225.031 563.386 225.031C560.296 225.031 557.791 227.536 557.791 230.626C557.791 233.716 560.296 236.221 563.386 236.221Z" fill="#070808"/>
<path d="M581.449 236.221C584.539 236.221 587.044 233.716 587.044 230.626C587.044 227.536 584.539 225.031 581.449 225.031C578.359 225.031 575.854 227.536 575.854 230.626C575.854 233.716 578.359 236.221 581.449 236.221Z" fill="#070808"/>
<path d="M599.513 236.221C602.604 236.221 605.109 233.716 605.109 230.626C605.109 227.536 602.604 225.031 599.513 225.031C596.423 225.031 593.918 227.536 593.918 230.626C593.918 233.716 596.423 236.221 599.513 236.221Z" fill="#070808"/>
<path d="M617.576 236.221C620.666 236.221 623.171 233.716 623.171 230.626C623.171 227.536 620.666 225.031 617.576 225.031C614.485 225.031 611.98 227.536 611.98 230.626C611.98 233.716 614.485 236.221 617.576 236.221Z" fill="#070808"/>
<path d="M523.709 197.787C523.709 197.787 579.782 188.658 572.32 168.113C566.052 150.852 550.207 163.521 550.758 167.616C554.601 196.21 598.777 199.49 606.989 177.018C618.261 146.173 594.264 148.706 598.741 164.353C603.218 179.999 624.128 152.466 628.606 175.666" stroke="#070808" stroke-width="6" stroke-miterlimit="10" stroke-linecap="round"/>
<path d="M569.451 362.472C569.464 360.881 569.954 359.33 570.858 358.021C571.687 356.728 572.716 355.575 573.906 354.604C575.032 353.706 576.055 352.684 576.952 351.557C577.812 350.589 578.309 349.353 578.359 348.059C578.389 347.516 578.289 346.972 578.068 346.475C577.846 345.977 577.51 345.539 577.086 345.197C576.051 344.47 574.799 344.116 573.536 344.192C570.569 344.192 568.466 345.764 567.23 348.908L560.977 345.304C561.957 342.785 563.735 340.654 566.037 339.237C568.37 337.802 571.062 337.058 573.801 337.093C576.821 337.028 579.77 338.011 582.147 339.874C583.301 340.779 584.222 341.945 584.835 343.277C585.448 344.609 585.735 346.067 585.672 347.532C585.683 348.963 585.365 350.377 584.744 351.665C584.177 352.862 583.426 353.962 582.517 354.925C581.652 355.825 580.786 356.674 579.922 357.471C579.1 358.216 578.354 359.042 577.695 359.935C577.12 360.662 576.795 361.555 576.768 362.481L569.451 362.472ZM576.284 374.289C575.55 375.019 574.584 375.47 573.554 375.568C572.523 375.666 571.49 375.404 570.631 374.826C569.772 374.249 569.14 373.391 568.842 372.4C568.543 371.408 568.598 370.344 568.996 369.388C569.394 368.432 570.112 367.644 571.026 367.157C571.939 366.67 572.993 366.516 574.009 366.719C575.024 366.922 575.937 367.47 576.594 368.271C577.251 369.071 577.609 370.075 577.609 371.11C577.617 371.702 577.504 372.29 577.277 372.837C577.05 373.384 576.713 373.878 576.288 374.29L576.284 374.289Z" fill="#1890FF"/>
<path d="M406.002 176.67C406.016 174.73 406.613 172.84 407.715 171.243C408.725 169.667 409.978 168.261 411.428 167.078C412.802 165.984 414.048 164.738 415.142 163.364C416.189 162.184 416.794 160.677 416.853 159.101C416.889 158.438 416.768 157.777 416.499 157.171C416.229 156.564 415.819 156.031 415.304 155.613C414.041 154.726 412.516 154.293 410.976 154.386C407.358 154.386 404.796 156.302 403.29 160.135L395.668 155.742C396.864 152.672 399.03 150.074 401.837 148.346C404.68 146.597 407.961 145.692 411.299 145.734C414.98 145.654 418.575 146.852 421.472 149.125C424.334 151.385 425.765 154.496 425.765 158.456C425.779 160.2 425.393 161.923 424.635 163.494C423.944 164.951 423.029 166.292 421.923 167.466C420.867 168.564 419.812 169.597 418.758 170.566C417.756 171.474 416.847 172.481 416.045 173.569C415.344 174.454 414.948 175.542 414.915 176.67H406.002ZM414.334 191.073C413.439 191.962 412.263 192.512 411.007 192.63C409.751 192.749 408.493 192.429 407.447 191.725C406.4 191.021 405.63 189.976 405.267 188.768C404.904 187.559 404.971 186.263 405.456 185.099C405.941 183.934 406.815 182.974 407.928 182.382C409.042 181.789 410.326 181.6 411.563 181.848C412.8 182.095 413.913 182.763 414.713 183.739C415.513 184.714 415.949 185.936 415.949 187.198C415.959 187.92 415.821 188.636 415.543 189.303C415.265 189.969 414.853 190.571 414.334 191.073Z" fill="#1890FF"/>
<path d="M329.09 577.831C386.074 577.831 432.268 548.969 432.268 513.366C432.268 477.762 386.074 448.9 329.09 448.9C272.106 448.9 225.912 477.762 225.912 513.366C225.912 548.969 272.106 577.831 329.09 577.831Z" stroke="#070808" stroke-width="6" stroke-miterlimit="10"/>
</g>
</g>
<defs>
<filter id="filter0_d_416_18689" x="216.529" y="123.878" width="467.445" height="464.953" filterUnits="userSpaceOnUse" color-interpolation-filters="sRGB">
<feFlood flood-opacity="0" result="BackgroundImageFix"/>
<feColorMatrix in="SourceAlpha" type="matrix" values="0 0 0 0 0 0 0 0 0 0 0 0 0 0 0 0 0 0 127 0" result="hardAlpha"/>
<feOffset dy="2"/>
<feGaussianBlur stdDeviation="3"/>
<feComposite in2="hardAlpha" operator="out"/>
<feColorMatrix type="matrix" values="0 0 0 0 0.133333 0 0 0 0 0.443137 0 0 0 0 1 0 0 0 0.3 0"/>
<feBlend mode="normal" in2="BackgroundImageFix" result="effect1_dropShadow_416_18689"/>
<feBlend mode="normal" in="SourceGraphic" in2="effect1_dropShadow_416_18689" result="shape"/>
</filter>
<filter id="filter1_d_416_18689" x="484.248" y="127.878" width="197.727" height="155.817" filterUnits="userSpaceOnUse" color-interpolation-filters="sRGB">
<feFlood flood-opacity="0" result="BackgroundImageFix"/>
<feColorMatrix in="SourceAlpha" type="matrix" values="0 0 0 0 0 0 0 0 0 0 0 0 0 0 0 0 0 0 127 0" result="hardAlpha"/>
<feOffset dy="4"/>
<feGaussianBlur stdDeviation="2"/>
<feComposite in2="hardAlpha" operator="out"/>
<feColorMatrix type="matrix" values="0 0 0 0 0 0 0 0 0 0 0 0 0 0 0 0 0 0 0.25 0"/>
<feBlend mode="normal" in2="BackgroundImageFix" result="effect1_dropShadow_416_18689"/>
<feBlend mode="normal" in="SourceGraphic" in2="effect1_dropShadow_416_18689" result="shape"/>
</filter>
</defs>
</svg>
